<svg width="512" height="512" viewBox="0 0 512 512" xmlns="http://www.w3.org/2000/svg">
  <defs>
    <linearGradient id="bg" x1="0" y1="0" x2="0" y2="1">
      <stop offset="0" stop-color="#1b2440"/>
      <stop offset="1" stop-color="#0b1020"/>
    </linearGradient>
    <radialGradient id="glow" cx="50%" cy="38%" r="55%">
      <stop offset="0" stop-color="#3a63ff" stop-opacity="0.55"/>
      <stop offset="1" stop-color="#3a63ff" stop-opacity="0"/>
    </radialGradient>
    <linearGradient id="gold" x1="0" y1="0" x2="1" y2="1">
      <stop offset="0" stop-color="#ffe7a3"/>
      <stop offset="0.5" stop-color="#f6c455"/>
      <stop offset="1" stop-color="#d99b2b"/>
    </linearGradient>
  </defs>

  <rect width="512" height="512" rx="112" fill="url(#bg)"/>
  <rect width="512" height="512" rx="112" fill="url(#glow)"/>

  <g fill="url(#gold)">
    <!-- copa -->
    <path d="M176 120h160v52c0 62-30 104-72 113v44h26c20 0 34 13 34 33v6H188v-6c0-20 14-33 34-33h26v-44c-42-9-72-51-72-113v-52z"/>
    <!-- base -->
    <rect x="168" y="380" width="176" height="26" rx="10"/>
    <rect x="150" y="408" width="212" height="22" rx="11"/>
    <!-- asas -->
    <path d="M176 132h-26c-26 0-44 20-44 48 0 36 26 62 64 70v-30c-22-7-34-22-34-40 0-10 6-18 18-18h22v-30z"/>
    <path d="M336 132h26c26 0 44 20 44 48 0 36-26 62-64 70v-30c22-7 34-22 34-40 0-10-6-18-18-18h-22v-30z"/>
  </g>
</svg>
